<svg width="388" height="477" viewBox="0 0 388 477" fill="none" xmlns="http://www.w3.org/2000/svg">
<rect x="149.177" y="169.775" width="21.4658" height="7.27033" rx="2" transform="rotate(138.697 149.177 169.775)" fill="#FFDFDF"/>
<rect x="129.565" y="206.175" width="28.8387" height="23.1085" rx="2" transform="rotate(175.524 129.565 206.175)" fill="#FFDFDF"/>
<rect x="86.5366" y="155.313" width="15.6185" height="5.51869" rx="2" transform="rotate(13.4494 86.5366 155.313)" fill="#FFDFDF"/>
<path d="M184.253 229.313C204.253 185.313 269.253 215.313 284.253 229.313C299.253 243.313 305.753 333.813 284.253 342.313C262.753 350.813 205.753 342.313 184.253 342.313C162.753 342.313 164.253 273.313 184.253 229.313Z" fill="url(#paint0_linear_152_531)"/>
<path d="M202.753 142.656C202.753 142.656 240.253 135.656 251.753 142.656C263.253 149.656 251.753 190.656 251.753 190.656C251.753 190.656 218.253 211.156 202.753 190.656C187.253 170.156 202.753 142.656 202.753 142.656Z" fill="#FFDFDF"/>
<path d="M220.56 183.313H247.253V214.692C247.253 214.692 225.75 218.34 220.56 214.692C215.369 211.043 220.56 183.313 220.56 183.313Z" fill="#FFDDDD" fill-opacity="0.68"/>
<g filter="url(#filter0_d_152_531)">
<path d="M256.753 217.313C265.753 213.813 279.454 224.313 286.954 230.313C294.454 236.313 304.454 332.813 301.954 339.313C299.454 345.813 261.454 353.313 261.454 353.313C261.454 353.313 247.753 220.813 256.753 217.313Z" fill="url(#paint1_linear_152_531)"/>
</g>
<path d="M189.253 130.313C193.753 125.313 200.253 122.313 207.753 124.313C215.253 126.313 223.253 135.813 229.253 135.313C235.253 134.813 257.253 124.313 263.753 130.313C270.253 136.313 279.253 196.206 274.753 197.813C270.253 199.42 253.753 195.813 250.753 192.313C247.753 188.813 255.753 172.313 255.253 167.813C254.753 163.313 250.753 154.813 245.253 151.313C239.753 147.813 218.753 151.313 218.753 151.313C218.753 151.313 198.253 155.813 192.253 151.313C186.253 146.813 184.753 135.313 189.253 130.313Z" fill="url(#paint2_linear_152_531)"/>
<path d="M142.689 244.337C147.617 243.839 147.137 239.775 153.262 232.923C159.388 226.071 169.328 219.861 169.328 219.861C169.328 219.861 178.713 214.222 185.864 211.442C193.016 208.663 207.242 207.739 207.242 207.739C207.242 207.739 190.074 221.362 185.559 229.979C181.044 238.595 175.783 259.368 175.783 259.368C175.783 259.368 155.212 280.467 148.626 282.097C142.04 283.726 132.252 280.668 126.28 278.252C126.28 278.252 116.088 266.496 112.397 258.323C108.706 250.151 98.5023 205.947 98.5023 205.947C100.208 201.92 134.097 201.898 134.097 201.898C134.097 201.898 137.762 244.835 142.689 244.337Z" fill="url(#paint3_linear_152_531)"/>
<rect x="93.2529" y="126.313" width="44" height="70" rx="5" fill="#8572FF"/>
<path d="M95.2529 134.313C95.2529 131 97.9392 128.313 101.253 128.313H129.253C132.567 128.313 135.253 131 135.253 134.313V188.313C135.253 191.627 132.567 194.313 129.253 194.313H101.253C97.9392 194.313 95.2529 191.627 95.2529 188.313V134.313Z" fill="#B0ACFF"/>
<rect x="108.253" y="128.313" width="13" height="2" rx="1" fill="#8572FF"/>
<rect x="134.253" y="154.313" width="13" height="2" rx="1" transform="rotate(90 134.253 154.313)" fill="#AAC8F8"/>
<rect x="112.22" y="193.373" width="2.95496" height="2" rx="1" transform="rotate(179.662 112.22 193.373)" fill="#669EF9"/>
<rect x="114.288" y="193.292" width="1.94323" height="2.98825" rx="0.971614" transform="rotate(-90.6769 114.288 193.292)" fill="#669EF9"/>
<rect x="119.276" y="193.292" width="1.94323" height="2.98825" rx="0.971614" transform="rotate(-90.6769 119.276 193.292)" fill="#669EF9"/>
<path d="M115.56 158.964C120.926 158.964 125.216 163.076 125.216 168.077C125.216 173.078 120.926 177.191 115.56 177.191C110.193 177.191 105.903 173.078 105.903 168.077C105.903 163.076 110.193 158.964 115.56 158.964Z" stroke="#EEF3FF" stroke-width="1.3"/>
<path d="M111.995 172.688C111.995 172.538 112.168 172.417 112.382 172.417H118.194C118.408 172.417 118.581 172.538 118.581 172.688C118.581 172.838 118.408 172.959 118.194 172.959H112.382C112.168 172.959 111.995 172.838 111.995 172.688Z" fill="white"/>
<path d="M111.22 173.23C111.22 173.081 111.393 172.959 111.607 172.959H118.969C119.183 172.959 119.356 173.081 119.356 173.23C119.356 173.38 119.183 173.502 118.969 173.502H111.607C111.393 173.502 111.22 173.38 111.22 173.23Z" fill="white"/>
<path d="M122.135 171.278C121.956 171.482 121.639 171.505 121.431 171.329L117.414 167.951C117.207 167.777 117.185 167.474 117.365 167.274C117.545 167.074 117.859 167.053 118.066 167.227L122.083 170.606C122.288 170.778 122.311 171.078 122.135 171.278Z" fill="white"/>
<path d="M121.809 171.647C122.253 171.468 122.253 171.468 122.452 170.916C122.651 170.364 123.253 171.59 123.253 171.59L122.601 172.313C122.601 172.313 121.364 171.826 121.809 171.647Z" fill="white"/>
<path d="M112.358 167.382C112.517 167.204 112.796 167.185 112.979 167.341L115.692 169.656C115.861 169.8 115.879 170.048 115.732 170.213C115.584 170.38 115.324 170.399 115.151 170.256L112.405 167.977C112.222 167.826 112.201 167.559 112.358 167.382Z" fill="white"/>
<path d="M116.436 169.286C116.255 169.489 115.937 169.51 115.73 169.332L113.132 167.101C112.929 166.927 112.908 166.629 113.085 166.43L115.693 163.498C115.871 163.298 116.181 163.274 116.39 163.444L119.049 165.606C119.26 165.778 119.285 166.083 119.105 166.285L116.436 169.286Z" fill="white"/>
<path d="M119.937 165.382C119.76 165.582 119.448 165.606 119.24 165.436L116.585 163.269C116.375 163.097 116.349 162.792 116.529 162.59L116.626 162.48C116.805 162.279 117.119 162.256 117.327 162.429L119.963 164.617C120.171 164.789 120.195 165.092 120.016 165.293L119.937 165.382Z" fill="white"/>
<path d="M116.045 135.813C121.742 135.813 126.336 140.303 126.336 145.813C126.336 151.323 121.742 155.813 116.045 155.813C110.348 155.813 105.753 151.323 105.753 145.813C105.753 140.303 110.348 135.813 116.045 135.813Z" stroke="#EEF3FF"/>
<path d="M110.387 140.78C110.784 140.016 111.896 140.077 112.207 140.88L112.35 141.252C112.454 141.52 112.437 141.819 112.305 142.073L109.293 147.877C109.121 148.208 108.779 148.416 108.405 148.416L108.066 148.416C107.316 148.416 106.833 147.621 107.179 146.955L110.387 140.78Z" fill="#5D65FF"/>
<path d="M109.454 148.473L112.572 142.055L115.461 143.772L113.289 149.716L113.065 149.588L109.454 148.473Z" fill="#5D65FF"/>
<path d="M121.916 140.196C121.519 139.432 120.406 139.494 120.095 140.297L119.952 140.669C119.848 140.936 119.865 141.235 119.997 141.49L123.009 147.293C123.181 147.625 123.524 147.833 123.897 147.833L124.236 147.833C124.986 147.833 125.469 147.037 125.123 146.372L121.916 140.196Z" fill="white"/>
<path d="M119.583 141.381L115.998 141.381C115.998 141.381 113.396 142.022 113.081 142.313C112.766 142.605 111.879 143.772 111.739 144.063C111.599 144.355 111.891 145.23 112.323 145.23C112.754 145.23 113.781 143.48 113.781 143.48L115.239 143.772C115.239 143.772 116.838 145.23 117.281 145.813C117.724 146.397 119.583 148.673 119.583 148.673L122.706 147.798L119.583 141.381Z" fill="white"/>
<path d="M115.169 151.123C114.274 150.56 113.268 149.716 113.268 149.716L115.169 143.772L116.801 144.732C116.801 144.732 117.983 145.452 118.961 146.105L115.169 151.123Z" fill="#5D65FF"/>
<path d="M120.396 148.632C119.564 148.1 117.592 147.177 117.592 147.177L118.964 146.158C120.096 146.79 121.057 147.386 121.38 147.75C121.729 148.142 121.228 149.164 120.396 148.632Z" fill="#5D65FF"/>
<path d="M120.144 148.897C120.864 149.563 119.445 150.025 118.975 149.701C118.506 149.376 116.726 148.361 116.726 148.361L117.886 147.354C117.886 147.354 119.423 148.23 120.144 148.897Z" fill="#5D65FF"/>
<path d="M118.735 149.757C119.48 150.509 118.493 151.076 117.903 150.679C117.312 150.281 116.24 149.513 116.24 149.513L117.022 148.692C117.022 148.692 117.989 149.004 118.735 149.757Z" fill="#5D65FF"/>
<path d="M116.456 150.997C115.975 150.911 115.775 150.869 115.178 150.52L115.92 149.703C115.92 149.703 116.742 150.255 117.053 150.524C117.363 150.793 116.937 151.083 116.456 150.997Z" fill="#5D65FF"/>
<rect x="111.131" y="148.147" width="1.16667" height="1.75" rx="0.583333" transform="rotate(43.8192 111.131 148.147)" fill="white"/>
<rect x="112.298" y="148.73" width="1.16667" height="1.75" rx="0.583333" transform="rotate(43.8192 112.298 148.73)" fill="white"/>
<rect x="114.061" y="148.73" width="1.1792" height="1.7688" rx="0.589602" transform="rotate(43.8192 114.061 148.73)" fill="white"/>
<rect x="115.228" y="149.313" width="1.1792" height="1.7688" rx="0.589602" transform="rotate(43.8192 115.228 149.313)" fill="white"/>
<rect x="89.6484" y="163.313" width="14" height="6" rx="2" transform="rotate(13.4494 89.6484 163.313)" fill="#FFDFDF"/>
<rect x="88.6484" y="170.313" width="12.1744" height="5.31414" rx="2" transform="rotate(13.4494 88.6484 170.313)" fill="#FFDFDF"/>
<rect x="89.3462" y="177.313" width="10.9692" height="4.70108" rx="2" transform="rotate(13.4494 89.3462 177.313)" fill="#FFDFDF"/>
<rect x="194.375" y="42" width="47.625" height="31" rx="12" fill="#AEA2FF"/>
<path d="M205.902 50.6329C204.592 52.5487 203.827 54.8399 203.827 57.3038C203.827 59.7677 204.592 62.0589 205.902 63.9747H194V50.6329H205.902ZM242 63.9747H227.074C228.385 62.0589 229.149 59.7677 229.149 57.3038C229.149 54.8399 228.385 52.5487 227.074 50.6329H242V63.9747Z" fill="#647EFF"/>
<rect x="205.625" y="45.0696" width="22.875" height="24.0759" rx="11.4375" stroke="white" stroke-width="3"/>
<circle cx="217.062" cy="57.1076" r="6" fill="#3205C4"/>
<ellipse cx="236.351" cy="46.0634" rx="1.6875" ry="1.76582" fill="white"/>
<path d="M64.903 266.13H40.7828C40.2826 260.885 40.269 257.268 56.0248 251.083C65.7866 257.423 63.5602 260.206 64.903 266.13Z" fill="url(#paint4_linear_152_531)"/>
<path d="M99.4908 243.316C101.917 243.316 101.917 266.13 101.917 266.13H64.9944C63.757 260.217 65.7829 257.346 56.3604 250.984C56.3604 250.984 75.4995 241.132 79.543 243.316C83.5865 245.5 82.4261 249.715 86.0126 249.869C89.5991 250.023 91.5378 250.33 94.0995 249.869C96.6613 249.408 97.0648 243.316 99.4908 243.316Z" fill="url(#paint5_linear_152_531)"/>
<path d="M71.5692 244.871C71.5692 244.871 74.6984 249.762 75.0126 250.226C75.3268 250.689 73.9403 251.435 73.626 250.972C73.3118 250.509 69.8823 245.622 69.8823 245.622L71.5692 244.871Z" fill="white"/>
<path d="M68.1583 246.313C68.1583 246.313 70.991 250.751 71.2782 251.17C71.5653 251.588 70.0313 252.41 69.7441 251.991C69.457 251.572 66.3069 247.163 66.3069 247.163L68.1583 246.313Z" fill="white"/>
<path d="M64.3194 247.919C64.3194 247.919 66.9739 252.081 67.2439 252.473C67.5138 252.865 65.9804 253.685 65.7104 253.293C65.4404 252.901 62.4731 248.774 62.4731 248.774L64.3194 247.919Z" fill="white"/>
<path d="M102.103 256.435L102.373 265.159H91.8595C91.8595 260.334 96.2043 256.422 101.564 256.422C101.745 256.422 101.924 256.426 102.103 256.435Z" fill="url(#paint6_linear_152_531)"/>
<path d="M42.265 265.159C45.3264 265.159 97.8805 265.159 100.942 265.159C104.003 265.159 102.251 267.586 100.942 267.586C99.633 267.586 43.3069 267.586 42.265 267.586C41.2231 267.586 39.2036 265.159 42.265 265.159Z" fill="white"/>
<path d="M90.2459 93.2954L116.612 83.385C116.612 83.385 126.862 108.585 122.089 110.379C117.316 112.174 107.542 115.847 103.451 117.385C99.36 118.923 90.2459 93.2954 90.2459 93.2954Z" fill="url(#paint7_linear_152_531)"/>
<path d="M88.3545 92.4499C87.9771 91.4457 88.4851 90.3256 89.4894 89.9481L114.946 80.3794C115.95 80.002 117.07 80.5101 117.448 81.5143L117.619 81.9689C117.996 82.9731 117.488 84.0932 116.484 84.4707L91.0272 94.0394C90.023 94.4168 88.9029 93.9088 88.5254 92.9045L88.3545 92.4499Z" fill="url(#paint8_linear_152_531)"/>
<path d="M115.941 80.265C116.176 80.8926 110.262 83.6965 102.73 86.5275C95.1985 89.3586 88.9016 91.1448 88.6657 90.5172C88.4297 89.8895 94.3442 87.0857 101.876 84.2546C109.408 81.4236 115.705 79.6373 115.941 80.265Z" fill="url(#paint9_linear_152_531)"/>
<path d="M104.813 71.3148C106.87 77.6315 103.859 86.0337 102.682 86.8016C101.505 87.5696 95.2155 85.5569 91.713 76.239C89.4103 70.1126 89.1623 59.9801 93.0107 58.5336C96.8592 57.087 102.757 64.998 104.813 71.3148Z" fill="url(#paint10_linear_152_531)"/>
<path d="M111.006 77.5075C109.547 81.2803 108.071 79.8727 103.969 83.9776C104.026 79.7356 100.848 80.4978 102.773 74.7507C104.038 70.972 107.849 66.1023 110.268 66.9122C112.686 67.7221 112.464 73.7348 111.006 77.5075Z" fill="url(#paint11_linear_152_531)"/>
<path d="M84.2649 80.4392C90.811 80.2984 93.7447 81.9334 102.572 86.761C96.285 90.0534 91.5248 85.7689 85.5857 93.5686C81.8248 98.5077 70.6162 94.6373 70.6162 94.6373C70.6162 94.6373 77.7189 80.5801 84.2649 80.4392Z" fill="url(#paint12_linear_152_531)"/>
<path d="M112.634 69.7756C107.616 73.9815 106.486 77.1441 103.024 86.5912C109.923 84.927 110.683 78.5677 120.289 80.5242C126.372 81.7631 132.256 71.4679 132.256 71.4679C132.256 71.4679 117.653 65.5697 112.634 69.7756Z" fill="url(#paint13_linear_152_531)"/>
<path d="M116.618 386.536L146.351 372.613L150.702 376.84L116.618 393V386.536Z" fill="#546AF8"/>
<path d="M59.9813 368.527C62.9524 367.989 116.395 379.968 116.395 379.968L116.618 393C116.618 393 63.152 382.26 59.9418 380.174C56.7317 378.087 57.0103 369.064 59.9813 368.527Z" fill="#4C53E4"/>
<path d="M61.4633 368.64C64.353 368.157 116.485 379.798 116.485 379.798L116.532 391.511C116.532 391.511 64.6478 381.554 61.5067 379.572C58.3657 377.589 58.5735 369.122 61.4633 368.64Z" fill="#F7F7F7"/>
<path d="M116.58 379.771L148.95 366.149V376.591L116.58 391.508L116.58 379.771Z" fill="#D9D9D9"/>
<path d="M117.349 374.851L147.082 360.928L151.433 365.155L117.349 381.315V374.851Z" fill="#546AF8"/>
<path d="M60.7128 356.841C63.6838 356.304 117.126 368.282 117.126 368.282L117.349 381.315C117.349 381.315 63.8834 370.575 60.6733 368.488C57.4631 366.402 57.7417 357.379 60.7128 356.841Z" fill="#4C53E4"/>
<path d="M62.1947 356.955C65.0845 356.472 117.217 368.113 117.217 368.113L117.263 379.826C117.263 379.826 65.3792 369.869 62.2382 367.887C59.0971 365.904 59.305 357.437 62.1947 356.955Z" fill="#F7F7F7"/>
<path d="M117.311 368.086L149.682 354.464V364.906L117.311 379.823L117.311 368.086Z" fill="#D9D9D9"/>
<path d="M117.349 374.851L147.082 360.928L151.433 365.155L117.349 381.315V374.851Z" fill="#546AF8"/>
<path d="M60.7128 356.841C63.6838 356.304 117.126 368.282 117.126 368.282L117.349 381.315C117.349 381.315 63.8834 370.575 60.6733 368.488C57.4631 366.402 57.7417 357.379 60.7128 356.841Z" fill="#4C53E4"/>
<path d="M62.1947 356.955C65.0845 356.472 117.217 368.113 117.217 368.113L117.263 379.826C117.263 379.826 65.3792 369.869 62.2382 367.887C59.0971 365.904 59.305 357.437 62.1947 356.955Z" fill="#F7F7F7"/>
<path d="M117.311 368.086L149.682 354.464V364.906L117.311 379.823L117.311 368.086Z" fill="#D9D9D9"/>
<path d="M99.6966 348C101.369 348 152.642 353.219 152.642 355.117C152.642 357.014 120.323 368.884 116.921 368.884C113.519 368.884 60.3011 357.014 60.3011 357.014C60.3011 357.014 98.0246 348 99.6966 348Z" fill="#4C53E4"/>
<path d="M123.634 356.453C123.634 359.886 119.234 363.414 110.823 363.414C102.412 363.414 90.2757 360.88 90.2757 357.448C90.2757 354.015 96.3688 350.486 104.779 350.486C113.19 350.486 123.634 353.02 123.634 356.453Z" fill="#807EFC"/>
<path d="M359.642 301.047C359.642 310.61 351.807 318.362 342.142 318.362C332.477 318.362 324.642 310.61 324.642 301.047C324.642 291.484 332.477 283.732 342.142 283.732C351.807 283.732 359.642 291.484 359.642 301.047Z" fill="url(#paint14_linear_152_531)"/>
<path d="M355.792 301.22C355.792 308.775 349.602 314.899 341.967 314.899C334.332 314.899 328.142 308.775 328.142 301.22C328.142 293.665 334.332 287.541 341.967 287.541C349.602 287.541 355.792 293.665 355.792 301.22Z" fill="white"/>
<path d="M354.554 282C357.357 282 359.629 284.248 359.629 287.021C359.629 288.945 358.536 290.616 356.93 291.459C355.207 288.763 352.753 286.571 349.842 285.154C350.591 283.306 352.419 282 354.554 282Z" fill="url(#paint15_linear_152_531)"/>
<path d="M329.717 282C326.914 282 324.642 284.248 324.642 287.021C324.642 288.945 325.736 290.616 327.341 291.459C329.064 288.763 331.519 286.571 334.429 285.154C333.681 283.306 331.853 282 329.717 282Z" fill="url(#paint16_linear_152_531)"/>
<path d="M330.752 314.299L333.59 316.199C332.694 317.51 332.561 318.569 331.295 319.557C330.028 320.545 328.203 319.324 328.456 317.657C328.709 315.991 330.752 314.299 330.752 314.299Z" fill="url(#paint17_linear_152_531)"/>
<path d="M353.211 314.388L350.372 316.287C351.269 317.599 351.402 318.658 352.668 319.646C353.935 320.634 355.759 319.412 355.507 317.746C355.254 316.079 353.211 314.388 353.211 314.388Z" fill="url(#paint18_linear_152_531)"/>
<path d="M341.967 312.815C342.083 312.819 342.2 312.821 342.317 312.821V314.207H341.967V312.815Z" fill="#355EFF"/>
<path d="M352.089 309.898L351.848 310.15L350.778 309.146C350.857 309.062 350.936 308.976 351.013 308.889L352.089 309.898Z" fill="#355EFF"/>
<path d="M332.569 307.512C332.632 307.609 332.697 307.705 332.764 307.8L331.546 308.639L331.346 308.355L332.569 307.512Z" fill="#355EFF"/>
<path d="M330.594 300.918C330.594 301.034 330.597 301.149 330.6 301.264L329.193 301.27L329.192 300.924L330.594 300.918Z" fill="#355EFF"/>
<path d="M355.443 301.167L354.04 301.172C354.042 301.073 354.043 300.974 354.043 300.874C354.043 300.858 354.043 300.842 354.043 300.826L355.442 300.821L355.443 301.167Z" fill="#355EFF"/>
<path d="M353.089 293.799L352.187 294.419C352.125 294.321 352.061 294.225 351.996 294.129L352.889 293.514L353.089 293.799Z" fill="#355EFF"/>
<path d="M333.754 292.714C333.676 292.8 333.599 292.886 333.523 292.974L332.791 292.288L332.911 292.162L333.031 292.037L333.754 292.714Z" fill="#355EFF"/>
<path d="M342.317 288.926C342.2 288.926 342.083 288.928 341.967 288.932V288.234H342.317V288.926Z" fill="#355EFF"/>
<path d="M342.842 301.047C342.842 301.43 342.529 301.74 342.142 301.74C341.755 301.74 341.442 301.43 341.442 301.047C341.442 300.664 341.755 300.354 342.142 300.354C342.529 300.354 342.842 300.664 342.842 301.047Z" fill="#355EFF"/>
<path d="M342.842 301.047C342.842 301.43 342.529 301.74 342.142 301.74C341.755 301.74 341.442 301.43 341.442 301.047C341.442 300.664 341.755 300.354 342.142 300.354C342.529 300.354 342.842 300.664 342.842 301.047ZM342.842 301.047H350.542M342.055 301.035L342.405 290.655M359.642 301.047C359.642 310.61 351.807 318.362 342.142 318.362C332.477 318.362 324.642 310.61 324.642 301.047C324.642 291.484 332.477 283.732 342.142 283.732C351.807 283.732 359.642 291.484 359.642 301.047ZM355.792 301.22C355.792 308.775 349.602 314.899 341.967 314.899C334.332 314.899 328.142 308.775 328.142 301.22C328.142 293.665 334.332 287.541 341.967 287.541C349.602 287.541 355.792 293.665 355.792 301.22ZM354.554 282C357.357 282 359.629 284.248 359.629 287.021C359.629 288.945 358.536 290.616 356.93 291.459C355.207 288.763 352.753 286.571 349.842 285.154C350.591 283.306 352.419 282 354.554 282ZM329.717 282C326.914 282 324.642 284.248 324.642 287.021C324.642 288.945 325.736 290.616 327.341 291.459C329.064 288.763 331.519 286.571 334.429 285.154C333.681 283.306 331.853 282 329.717 282ZM330.752 314.299L333.59 316.199C332.694 317.51 332.561 318.569 331.295 319.557C330.028 320.545 328.203 319.324 328.456 317.657C328.709 315.991 330.752 314.299 330.752 314.299ZM353.211 314.388L350.372 316.287C351.269 317.599 351.402 318.658 352.668 319.646C353.935 320.634 355.759 319.412 355.507 317.746C355.254 316.079 353.211 314.388 353.211 314.388ZM341.967 312.815C342.083 312.819 342.2 312.821 342.317 312.821V314.207H341.967V312.815ZM352.089 309.898L351.848 310.15L350.778 309.146C350.857 309.062 350.936 308.976 351.013 308.889L352.089 309.898ZM332.569 307.512C332.632 307.609 332.697 307.705 332.764 307.8L331.546 308.639L331.346 308.355L332.569 307.512ZM330.594 300.918C330.594 301.034 330.597 301.149 330.6 301.264L329.193 301.27L329.192 300.924L330.594 300.918ZM355.443 301.167L354.04 301.172C354.042 301.073 354.043 300.974 354.043 300.874C354.043 300.858 354.043 300.842 354.043 300.826L355.442 300.821L355.443 301.167ZM353.089 293.799L352.187 294.419C352.125 294.321 352.061 294.225 351.996 294.129L352.889 293.514L353.089 293.799ZM333.754 292.714C333.676 292.8 333.599 292.886 333.523 292.974L332.791 292.288L332.911 292.162L333.031 292.037L333.754 292.714ZM342.317 288.926C342.2 288.926 342.083 288.928 341.967 288.932V288.234H342.317V288.926Z" stroke="#355EFF" stroke-width="0.5"/>
<path d="M303.256 113.048C307.7 110.316 310.711 106.146 316.021 109.124C317.873 110.162 318.455 112.066 320.348 112.898C324.156 114.572 327.704 113.098 328.866 109.068C329.431 107.105 328.346 105.461 328.74 103.404C329.857 97.5823 339.744 96.6394 339.744 96.6394L357.344 95.5431C358.44 95.4749 359.592 96.3096 360.167 97.5894L362.837 103.526C363.622 105.271 363.048 107.142 361.621 107.489L349.002 110.558C347.575 110.905 347 112.775 347.785 114.521L361.073 144.066C361.785 145.651 361.384 147.377 360.176 147.92L328.063 162.362C326.855 162.905 325.298 162.06 324.585 160.476L311.03 130.334C310.157 128.394 308.099 127.659 306.953 128.878L297.683 138.739C296.536 139.958 294.478 139.224 293.605 137.283L291.076 131.658C290.639 130.686 290.605 129.616 291.012 128.827C292.744 125.473 297.778 116.416 303.256 113.048Z" fill="url(#paint19_linear_152_531)"/>
<path d="M332.318 326.317C333.086 321.957 339.467 321.103 339.442 325.531C339.408 331.45 338.878 337.448 337.816 343.474C327.646 401.207 272.599 439.764 214.866 429.594C192.336 425.625 172.727 414.822 157.794 399.692C153.464 395.305 160.983 390.647 165.993 394.238C178.511 403.211 193.186 409.587 209.368 412.437C267.101 422.608 322.148 384.051 332.318 326.317Z" fill="#D1DEF8" fill-opacity="0.33"/>
<path d="M148.642 393C148.642 396.314 145.956 399 142.642 399C139.328 399 136.642 396.314 136.642 393C136.642 389.686 139.328 387 142.642 387C145.956 387 148.642 389.686 148.642 393Z" fill="#6DAAFF" fill-opacity="0.56"/>
<path d="M18.6421 228.5C18.6421 230.985 16.6274 233 14.1421 233C11.6568 233 9.64211 230.985 9.64211 228.5C9.64211 226.015 11.6568 224 14.1421 224C16.6274 224 18.6421 226.015 18.6421 228.5Z" fill="#6DAAFF" fill-opacity="0.56"/>
<path d="M61.6421 285.5C61.6421 287.433 60.0751 289 58.1421 289C56.2091 289 54.6421 287.433 54.6421 285.5C54.6421 283.567 56.2091 282 58.1421 282C60.0751 282 61.6421 283.567 61.6421 285.5Z" fill="#6DAAFF" fill-opacity="0.86"/>
<path d="M27.6421 109.5C27.6421 111.985 25.6274 114 23.1421 114C20.6568 114 18.6421 111.985 18.6421 109.5C18.6421 107.015 20.6568 105 23.1421 105C25.6274 105 27.6421 107.015 27.6421 109.5Z" fill="#6DAAFF" fill-opacity="0.87"/>
<path d="M170.642 34C170.642 35.6569 169.299 37 167.642 37C165.985 37 164.642 35.6569 164.642 34C164.642 32.3431 165.985 31 167.642 31C169.299 31 170.642 32.3431 170.642 34Z" fill="#6DAAFF" fill-opacity="0.87"/>
<path d="M246.642 68C246.642 69.6569 245.299 71 243.642 71C241.985 71 240.642 69.6569 240.642 68C240.642 66.3431 241.985 65 243.642 65C245.299 65 246.642 66.3431 246.642 68Z" fill="#D5E7FF" fill-opacity="0.87"/>
<path d="M322.642 102C322.642 103.657 321.299 105 319.642 105C317.985 105 316.642 103.657 316.642 102C316.642 100.343 317.985 99 319.642 99C321.299 99 322.642 100.343 322.642 102Z" fill="#6DAAFF" fill-opacity="0.87"/>
<path d="M365.642 163C365.642 164.657 364.299 166 362.642 166C360.985 166 359.642 164.657 359.642 163C359.642 161.343 360.985 160 362.642 160C364.299 160 365.642 161.343 365.642 163Z" fill="#6DAAFF" fill-opacity="0.87"/>
<path d="M332.642 257.5C332.642 261.09 329.732 264 326.142 264C322.552 264 319.642 261.09 319.642 257.5C319.642 253.91 322.552 251 326.142 251C329.732 251 332.642 253.91 332.642 257.5Z" fill="#9BBAE6" fill-opacity="0.5"/>
<path d="M383.915 182.796C394.298 208.384 381.972 237.544 356.384 247.927C352.317 249.578 348.16 250.654 344.003 251.194C339.923 251.725 340.298 245.821 344.11 244.274C369.698 233.891 382.024 204.731 371.641 179.143C369.462 173.774 374.162 166.995 377.63 171.637C380.14 174.996 382.265 178.729 383.915 182.796Z" fill="#88CFFF" fill-opacity="0.46"/>
<path d="M53.0428 353.714C61.2166 357.283 27.1421 328.5 37.2677 315.392C47.3934 302.284 46.1421 296 40.1835 294.329C34.2249 292.657 18.4872 303.589 23.5646 323.044C28.6421 342.5 53.0428 353.714 53.0428 353.714Z" fill="#6DAAFF" fill-opacity="0.56"/>
<path d="M13.4829 130.306C16.1323 128.714 19.3602 128.636 22.2389 129.762L23.8293 130.383C25.6563 131.097 27.1172 132.519 27.8802 134.327C28.9587 136.881 28.4899 139.827 26.6718 141.92L17.8197 152.114C14.9368 155.433 14.1002 160.064 15.6393 164.182L21.7017 180.406C22.6899 183.05 22.7787 186.01 21.2796 188.402C18.765 192.415 13.7965 197.434 6.23166 192.5C-5.26834 185 2.77599 172.164 2.23166 159C1.94124 151.977 -0.56548 147.449 2.23166 141C4.16749 136.537 9.59672 132.641 13.4829 130.306Z" fill="#6DAAFF" fill-opacity="0.49"/>
<path d="M108.442 62.4933C103.478 54.8566 118.138 51.6812 126.096 47.2499C134.348 42.6547 141.682 34.5103 149.229 40.1899C153.028 43.049 155.11 46.0816 155.137 50.8364C155.191 60.5994 139.114 50.5064 130.505 55.1117C124.008 58.5874 123.714 68.9394 116.451 67.7005C116.451 67.7005 110.476 65.621 108.442 62.4933Z" fill="#6DAAFF" fill-opacity="0.58"/>
<path d="M256.642 65.9656C259.163 57.4109 266.19 59.5496 270.925 59.5496C288.147 59.5496 300.303 49.8372 306.631 62.5437C310.411 70.136 318.586 72.609 317.552 80.9364C317.028 85.1615 316.383 88.3685 312.932 90.7743C304.792 96.449 299.489 80.9364 301.59 74.5204C303.69 68.1043 297.417 64.5919 289.828 63.827C283.265 63.1654 284.367 63.827 275.545 63.827C266.724 63.827 256.642 65.9656 256.642 65.9656Z" fill="#6DAAFF" fill-opacity="0.51"/>
<defs>
<filter id="filter0_d_152_531" x="248.09" y="215.015" width="55.8548" height="143.898" filterUnits="userSpaceOnUse" color-interpolation-filters="sRGB">
<feFlood flood-opacity="0" result="BackgroundImageFix"/>
<feColorMatrix in="SourceAlpha" type="matrix" values="0 0 0 0 0 0 0 0 0 0 0 0 0 0 0 0 0 0 127 0" result="hardAlpha"/>
<feOffset dx="-2" dy="2"/>
<feGaussianBlur stdDeviation="1.8"/>
<feComposite in2="hardAlpha" operator="out"/>
<feColorMatrix type="matrix" values="0 0 0 0 0.236278 0 0 0 0 0.14319 0 0 0 0 0.841346 0 0 0 0.26 0"/>
<feBlend mode="normal" in2="BackgroundImageFix" result="effect1_dropShadow_152_531"/>
<feBlend mode="normal" in="SourceGraphic" in2="effect1_dropShadow_152_531" result="shape"/>
</filter>
<linearGradient id="paint0_linear_152_531" x1="192.753" y1="202.313" x2="306.753" y2="473.313" gradientUnits="userSpaceOnUse">
<stop stop-color="#C5B3FF"/>
<stop offset="1" stop-color="#5338AA"/>
</linearGradient>
<linearGradient id="paint1_linear_152_531" x1="262.945" y1="216.615" x2="328.253" y2="437.313" gradientUnits="userSpaceOnUse">
<stop stop-color="#99A1FF"/>
<stop offset="1" stop-color="#55587B"/>
</linearGradient>
<linearGradient id="paint2_linear_152_531" x1="191.753" y1="132.313" x2="286.753" y2="183.313" gradientUnits="userSpaceOnUse">
<stop stop-color="#7983EE"/>
<stop offset="1" stop-color="#1D257C"/>
</linearGradient>
<linearGradient id="paint3_linear_152_531" x1="119.263" y1="201.654" x2="127.895" y2="342.271" gradientUnits="userSpaceOnUse">
<stop stop-color="#99A1FF"/>
<stop offset="1" stop-color="#55587B"/>
</linearGradient>
<linearGradient id="paint4_linear_152_531" x1="118.749" y1="235.72" x2="57.6536" y2="302.712" gradientUnits="userSpaceOnUse">
<stop stop-color="#A3BDFA"/>
<stop offset="1" stop-color="#8BADFE"/>
</linearGradient>
<linearGradient id="paint5_linear_152_531" x1="56.6859" y1="246.855" x2="80.3607" y2="274.323" gradientUnits="userSpaceOnUse">
<stop stop-color="#A8CCFF"/>
<stop offset="1" stop-color="#609CEF"/>
</linearGradient>
<linearGradient id="paint6_linear_152_531" x1="71.6421" y1="243" x2="89.0666" y2="299.587" gradientUnits="userSpaceOnUse">
<stop stop-color="#4877CD"/>
<stop offset="1" stop-color="#243C67"/>
</linearGradient>
<linearGradient id="paint7_linear_152_531" x1="28.7147" y1="85.268" x2="122.608" y2="70.8748" gradientUnits="userSpaceOnUse">
<stop stop-color="#FAFBFF"/>
<stop offset="1" stop-color="#94A3DE"/>
</linearGradient>
<linearGradient id="paint8_linear_152_531" x1="99.0284" y1="17.7352" x2="211.7" y2="80.207" gradientUnits="userSpaceOnUse">
<stop stop-color="#DEE6FF"/>
<stop offset="1" stop-color="#4570FD"/>
</linearGradient>
<linearGradient id="paint9_linear_152_531" x1="93.2496" y1="76.0878" x2="101.994" y2="42.2341" gradientUnits="userSpaceOnUse">
<stop stop-color="#E4F3FF"/>
<stop offset="1" stop-color="#4B44AF"/>
</linearGradient>
<linearGradient id="paint10_linear_152_531" x1="101.436" y1="58.3604" x2="101.436" y2="117.42" gradientUnits="userSpaceOnUse">
<stop stop-color="#D9D9D9"/>
<stop offset="1" stop-color="#4E31DC"/>
</linearGradient>
<linearGradient id="paint11_linear_152_531" x1="102.227" y1="41.6095" x2="102.727" y2="128.483" gradientUnits="userSpaceOnUse">
<stop stop-color="#C9C0FF"/>
<stop offset="1" stop-color="#44398C"/>
</linearGradient>
<linearGradient id="paint12_linear_152_531" x1="129.773" y1="85.9236" x2="123.366" y2="125.403" gradientUnits="userSpaceOnUse">
<stop stop-color="#A0A8FF"/>
<stop offset="1" stop-color="#0C23D7"/>
</linearGradient>
<linearGradient id="paint13_linear_152_531" x1="128.523" y1="69.2322" x2="109.555" y2="99.6085" gradientUnits="userSpaceOnUse">
<stop stop-color="#D9D9D9"/>
<stop offset="1" stop-color="#4554FF"/>
</linearGradient>
<linearGradient id="paint14_linear_152_531" x1="342.142" y1="273.26" x2="340.286" y2="371.865" gradientUnits="userSpaceOnUse">
<stop offset="0.0425829" stop-color="#8E72FF"/>
<stop offset="1" stop-color="#120449"/>
</linearGradient>
<linearGradient id="paint15_linear_152_531" x1="351.837" y1="315.307" x2="354.736" y2="319.639" gradientUnits="userSpaceOnUse">
<stop stop-color="#7A81F8"/>
<stop offset="1" stop-color="#874CC2"/>
</linearGradient>
<linearGradient id="paint16_linear_152_531" x1="351.837" y1="315.307" x2="354.736" y2="319.639" gradientUnits="userSpaceOnUse">
<stop stop-color="#7A81F8"/>
<stop offset="1" stop-color="#874CC2"/>
</linearGradient>
<linearGradient id="paint17_linear_152_531" x1="351.837" y1="315.307" x2="354.736" y2="319.639" gradientUnits="userSpaceOnUse">
<stop stop-color="#7A81F8"/>
<stop offset="1" stop-color="#874CC2"/>
</linearGradient>
<linearGradient id="paint18_linear_152_531" x1="351.837" y1="315.307" x2="354.736" y2="319.639" gradientUnits="userSpaceOnUse">
<stop stop-color="#7A81F8"/>
<stop offset="1" stop-color="#874CC2"/>
</linearGradient>
<linearGradient id="paint19_linear_152_531" x1="10.8019" y1="266.752" x2="596.327" y2="286.395" gradientUnits="userSpaceOnUse">
<stop stop-color="#A2ABED"/>
<stop offset="1" stop-color="#6172EE"/>
</linearGradient>
</defs>
</svg>
