<svg width="42" height="42" viewBox="0 0 42 42" fill="none" xmlns="http://www.w3.org/2000/svg">
<path fill-rule="evenodd" clip-rule="evenodd" d="M21 0C9.40202 0 5.66244e-07 9.40202 5.66244e-07 21C5.66244e-07 32.598 9.40202 42 21 42C32.598 42 42 32.598 42 21C42 9.40202 32.598 0 21 0ZM21.2802 16.5342C21.3409 16.5372 21.3981 16.5475 21.4564 16.5592C21.5183 16.5716 21.5787 16.5853 21.6681 16.6021C21.7293 16.6137 21.7931 16.6484 21.839 16.6753C21.8933 16.7072 21.9576 16.7499 22.029 16.8C22.1723 16.9006 22.3546 17.0392 22.5612 17.2026C22.9752 17.53 23.4957 17.9638 24.0148 18.4081C24.5341 18.8527 25.054 19.3092 25.4668 19.6829C25.8725 20.0502 26.191 20.3517 26.2933 20.478C26.3405 20.5362 26.3794 20.59 26.4039 20.6374C26.4154 20.6598 26.4318 20.6952 26.4374 20.7375C26.4432 20.7817 26.44 20.8686 26.3652 20.934C26.3009 20.9902 26.2276 20.9899 26.2005 20.9882C26.1672 20.9861 26.1378 20.9776 26.1181 20.9711C26.0772 20.9576 26.0343 20.9369 25.9973 20.9173C25.9212 20.8769 25.8359 20.8228 25.7726 20.7811C25.7403 20.7599 25.7124 20.741 25.6925 20.7273C25.6826 20.7205 25.6744 20.7151 25.6689 20.7112C25.6662 20.7094 25.6642 20.7077 25.6627 20.7067C25.6619 20.7062 25.6607 20.7053 25.6607 20.7053L25.66 20.705L25.6554 20.7017L25.6515 20.6985L21.2769 17.2433L10.5886 26.5545L10.5856 26.5571L10.1361 26.9335C10.1391 26.9481 10.1417 26.9641 10.1453 26.9811C10.1666 27.0817 10.1989 27.2216 10.2421 27.3765C10.3304 27.6929 10.4583 28.0493 10.6208 28.2791C10.8171 28.557 10.9972 28.7556 11.2015 28.9108C11.4055 29.0656 11.6429 29.1844 11.9621 29.2914C12.2552 29.3895 12.671 29.3932 13.0341 29.3655C13.2116 29.352 13.3694 29.3316 13.4827 29.3147C13.5358 29.3067 13.579 29.2993 13.6096 29.294C13.6137 29.2904 13.6181 29.2863 13.6228 29.2822C13.659 29.2503 13.7124 29.2035 13.7803 29.1437C13.916 29.0242 14.1103 28.8528 14.3443 28.6463C14.8124 28.2331 15.4396 27.6785 16.0752 27.1126C16.7109 26.5467 17.3547 25.9695 17.8569 25.5117C18.108 25.2828 18.3234 25.0841 18.4839 24.9319C18.6508 24.7737 18.7443 24.6787 18.7674 24.6487C18.9662 24.3909 19.2971 24.3457 19.51 24.5054C19.6208 24.5885 19.6894 24.7243 19.6698 24.882C19.6511 25.0312 19.558 25.1687 19.4184 25.2876C19.1872 25.4847 17.9312 26.6571 16.7255 27.7873C16.1243 28.3508 15.5375 28.9019 15.1013 29.3121C14.8832 29.5171 14.7026 29.6873 14.5766 29.8059C14.5247 29.8547 14.4818 29.8947 14.4496 29.925C14.4548 29.9791 14.4633 30.055 14.4765 30.1455C14.5047 30.337 14.5541 30.5916 14.6393 30.8487C14.7246 31.1058 14.8178 31.2665 14.9661 31.3714C15.1174 31.4783 15.359 31.5505 15.792 31.5505C16.2413 31.5505 16.4042 31.534 16.5467 31.498C16.6219 31.479 16.6932 31.4542 16.8049 31.417C16.9146 31.3804 17.0536 31.3355 17.2518 31.2811C17.3174 31.2632 17.4344 31.2053 17.6029 31.099C17.7661 30.9961 17.962 30.8579 18.1801 30.6935C18.6161 30.3648 19.1328 29.9385 19.6416 29.4991C20.15 29.06 20.6487 28.6095 21.0486 28.2332C21.4529 27.8527 21.7453 27.5581 21.8505 27.4263C21.9812 27.2626 22.1247 27.1524 22.2758 27.1113C22.4355 27.0679 22.5906 27.1069 22.6997 27.2147C22.9063 27.4189 22.8778 27.772 22.6649 28.0196C22.5719 28.1277 22.2504 28.4298 21.8328 28.8117C21.4089 29.1993 20.8715 29.6822 20.3336 30.1599C19.7956 30.6378 19.2563 31.1113 18.8288 31.4803C18.6152 31.6647 18.4287 31.8235 18.2841 31.944C18.1863 32.0255 18.1024 32.0935 18.0416 32.1398C18.1058 32.2103 18.2232 32.2994 18.3694 32.3925C18.5179 32.487 18.6788 32.5756 18.8039 32.6409C18.8661 32.6734 18.9191 32.6997 18.9561 32.718C18.9745 32.7271 18.989 32.7343 18.9988 32.739C19.0021 32.7406 19.0051 32.7419 19.0073 32.7429C19.0082 32.7433 19.0094 32.7438 19.0106 32.7442C19.0166 32.7466 19.0259 32.7502 19.0381 32.7547C19.0628 32.764 19.0996 32.7776 19.1464 32.7938C19.2402 32.8263 19.3742 32.8698 19.5336 32.9132C19.8548 33.0008 20.2695 33.0855 20.664 33.0855C21.325 33.0855 21.9843 32.9979 22.4805 32.9093C22.728 32.8651 22.9339 32.8209 23.0774 32.7879C23.149 32.7714 23.2052 32.7577 23.2431 32.7482C23.262 32.7434 23.2765 32.7395 23.286 32.737C23.2907 32.7358 23.2943 32.735 23.2965 32.7344C23.2975 32.7341 23.2988 32.7337 23.2988 32.7337L23.3028 32.7324C23.3055 32.7317 23.3096 32.7306 23.3149 32.7292C23.3257 32.7262 23.342 32.7216 23.3628 32.7157C23.4046 32.7039 23.4656 32.6865 23.5417 32.6639C23.694 32.6185 23.9069 32.5528 24.1487 32.4716C24.6348 32.3082 25.2278 32.0852 25.6807 31.8416C26.9078 31.1814 28.0045 30.1374 28.999 29.1821C29.4926 28.708 29.9634 28.254 30.4057 27.8906C30.8455 27.5292 31.2763 27.2408 31.6939 27.1153C32.4616 26.8845 33.1857 26.7468 33.7171 26.6667C33.983 26.6267 34.2014 26.6011 34.3537 26.5853C34.4299 26.5775 34.4896 26.572 34.5306 26.5686C34.551 26.5669 34.5667 26.5658 34.5775 26.565C34.5829 26.5646 34.5871 26.5642 34.59 26.564C34.5914 26.5639 34.5924 26.5637 34.5932 26.5637H34.5945L35.0011 26.5368L33.3342 29.0505L33.3283 29.0584L33.3277 29.0597C33.3271 29.0604 33.3263 29.0614 33.3254 29.0627C33.3233 29.0654 33.3203 29.0697 33.3165 29.0748C33.3087 29.0854 33.2969 29.1009 33.282 29.1208C33.2522 29.1607 33.2088 29.2187 33.1544 29.2904C33.0455 29.434 32.8921 29.6339 32.7144 29.8581C32.3601 30.3049 31.9035 30.8559 31.5066 31.2552C30.5412 32.2264 29.9288 32.7303 28.767 33.4579C27.4468 34.2847 26.6276 34.7179 25.1062 35.113C24.4362 35.2869 23.5646 35.3785 22.869 35.427C22.5194 35.4514 22.2107 35.465 21.9896 35.4726C21.8792 35.4764 21.7904 35.4788 21.7291 35.4802C21.6984 35.4808 21.6744 35.4812 21.6582 35.4815C21.6502 35.4816 21.6441 35.4817 21.6398 35.4818H21.6251C21.6238 35.4818 21.6219 35.4815 21.6195 35.4815C21.6147 35.4814 21.6077 35.4813 21.5985 35.4811C21.58 35.4807 21.5526 35.4801 21.5175 35.4792C21.4471 35.4773 21.345 35.4743 21.2179 35.4697C20.9637 35.4604 20.6089 35.4445 20.2063 35.4188C19.4036 35.3676 18.4005 35.2765 17.6246 35.1153C16.2462 34.8289 15.4356 34.6413 14.1524 34.0118C12.9921 33.4426 12.3938 32.9909 11.4089 32.1743C10.4809 31.4049 9.96441 30.9294 9.21572 29.969C8.77805 29.4075 8.32769 28.6244 7.98984 27.9894C7.82017 27.6704 7.67748 27.3857 7.57706 27.1809C7.52692 27.0786 7.48707 26.9961 7.45992 26.9391C7.44638 26.9106 7.43584 26.8882 7.42875 26.8731C7.42524 26.8656 7.42238 26.8597 7.42055 26.8557C7.41973 26.854 7.41904 26.8524 7.41858 26.8515L7.41792 26.8501L7.41136 26.8357L7.40709 26.8206L7.19841 26.0958L7.10489 25.7722L9.85688 26.3645C9.86951 26.353 9.88362 26.34 9.8992 26.3258C9.97718 26.2549 10.0918 26.1508 10.2375 26.0183C10.529 25.7534 10.9457 25.3746 11.447 24.9201C12.4496 24.0109 13.7906 22.7978 15.1426 21.5811C16.4945 20.3646 17.8581 19.1442 18.9066 18.2214C19.4306 17.7602 19.8771 17.3723 20.204 17.0963C20.3671 16.9585 20.5021 16.8473 20.6026 16.7685C20.6527 16.7293 20.6963 16.6966 20.7316 16.672C20.7491 16.6599 20.7665 16.648 20.7831 16.6382C20.7957 16.6308 20.8224 16.6155 20.854 16.6064C21.0358 16.554 21.154 16.528 21.2802 16.5342ZM20.981 5.376C27.4637 5.376 32.9289 9.70193 34.608 15.605C33.9717 15.738 32.8104 15.8952 31.3789 15.7011C30.6594 15.5693 29.9137 15.4036 29.2612 15.1991C28.5893 14.9885 27.8699 14.8155 27.2012 14.6777C25.009 13.4243 22.6985 12.561 20.809 12.561C18.7239 12.561 15.8764 13.5812 13.3327 15.0268C13.2183 15.0599 13.1047 15.094 12.9924 15.1292C12.3413 15.3333 11.5971 15.4985 10.879 15.6302C10.8778 15.6304 10.8766 15.6307 10.8754 15.6309C9.22532 15.8548 7.9342 15.6124 7.392 15.4773C9.11314 9.63982 14.5452 5.37606 20.981 5.376Z" fill="url(#paint0_linear_222_97)"/>
<defs>
<linearGradient id="paint0_linear_222_97" x1="29.232" y1="2.856" x2="9.24" y2="38.64" gradientUnits="userSpaceOnUse">
<stop stop-color="#08B9FD"/>
<stop offset="0.259698" stop-color="#1994FC"/>
<stop offset="0.476045" stop-color="#2D5FFD"/>
<stop offset="0.653931" stop-color="#3C42FE"/>
<stop offset="0.778931" stop-color="#5E1AFF"/>
<stop offset="0.918355" stop-color="#910AFE"/>
</linearGradient>
</defs>
</svg>
