<svg width="32" height="32" viewBox="0 0 32 32" fill="none" xmlns="http://www.w3.org/2000/svg">
<path fill-rule="evenodd" clip-rule="evenodd" d="M16 0C7.16344 0 -1.51992e-06 7.16344 -1.51992e-06 16C-1.51992e-06 24.8366 7.16344 32 16 32C24.8366 32 32 24.8366 32 16C32 7.16344 24.8366 0 16 0ZM16.2135 12.5975C16.2597 12.5998 16.3033 12.6076 16.3477 12.6165C16.3949 12.626 16.4409 12.6364 16.509 12.6493C16.5556 12.6581 16.6043 12.6845 16.6392 12.705C16.6806 12.7293 16.7296 12.7618 16.784 12.8C16.8931 12.8766 17.032 12.9822 17.1895 13.1068C17.505 13.3562 17.9015 13.6867 18.297 14.0253C18.6927 14.3639 19.0888 14.7118 19.4032 14.9965C19.7124 15.2763 19.955 15.5061 20.033 15.6023C20.069 15.6466 20.0986 15.6876 20.1172 15.7238C20.126 15.7408 20.1385 15.7678 20.1427 15.8C20.1472 15.8337 20.1448 15.8999 20.0877 15.9498C20.0388 15.9925 19.983 15.9923 19.9622 15.991C19.9369 15.9894 19.9146 15.983 19.8995 15.978C19.8684 15.9677 19.8356 15.9519 19.8075 15.937C19.7495 15.9062 19.6845 15.865 19.6362 15.8333C19.6117 15.8171 19.5904 15.8026 19.5752 15.7923C19.5677 15.7871 19.5615 15.7829 19.5572 15.78C19.5552 15.7786 19.5536 15.7773 19.5525 15.7765C19.552 15.7761 19.551 15.7755 19.551 15.7755L19.5505 15.7753L19.547 15.7728L19.544 15.7703L16.211 13.1378L8.0675 20.232L8.06525 20.234L7.72275 20.5208C7.725 20.5319 7.72702 20.5441 7.72975 20.557C7.746 20.6337 7.77058 20.7402 7.8035 20.8583C7.87077 21.0994 7.96826 21.3709 8.092 21.546C8.24163 21.7578 8.3788 21.909 8.5345 22.0273C8.68989 22.1452 8.87077 22.2358 9.114 22.3173C9.33726 22.392 9.6541 22.3948 9.93075 22.3738C10.066 22.3634 10.1862 22.3479 10.2725 22.335C10.313 22.3289 10.3459 22.3233 10.3692 22.3193C10.3724 22.3165 10.3757 22.3134 10.3792 22.3103C10.4069 22.2859 10.4476 22.2503 10.4992 22.2048C10.6027 22.1137 10.7507 21.9831 10.929 21.8258C11.2856 21.5109 11.7635 21.0884 12.2477 20.6573C12.7321 20.226 13.2226 19.7863 13.6052 19.4375C13.7966 19.2631 13.9606 19.1117 14.083 18.9958C14.2101 18.8752 14.2814 18.8028 14.299 18.78C14.4504 18.5835 14.7026 18.5491 14.8647 18.6708C14.9492 18.7341 15.0015 18.8376 14.9865 18.9578C14.9723 19.0714 14.9014 19.1761 14.795 19.2668C14.6188 19.4169 13.6618 20.3102 12.7432 21.1713C12.2852 21.6006 11.8381 22.0205 11.5057 22.333C11.3396 22.4892 11.202 22.6189 11.106 22.7093C11.0665 22.7465 11.0338 22.7769 11.0092 22.8C11.0132 22.8412 11.0196 22.899 11.0297 22.968C11.0512 23.1139 11.0888 23.3079 11.1537 23.5038C11.2187 23.6997 11.2898 23.8221 11.4027 23.902C11.518 23.9835 11.7021 24.0385 12.032 24.0385C12.3744 24.0385 12.4984 24.0259 12.607 23.9985C12.6643 23.984 12.7187 23.9651 12.8037 23.9368C12.8873 23.9089 12.9932 23.8747 13.1442 23.8333C13.1942 23.8196 13.2833 23.7755 13.4117 23.6945C13.5361 23.6161 13.6853 23.5108 13.8515 23.3855C14.1837 23.1351 14.5774 22.8103 14.965 22.4755C15.3524 22.141 15.7323 21.7977 16.037 21.511C16.345 21.2211 16.5679 20.9966 16.648 20.8963C16.7476 20.7715 16.8569 20.6876 16.972 20.6563C17.0937 20.6232 17.2119 20.6529 17.295 20.735C17.4524 20.8906 17.4307 21.1597 17.2685 21.3483C17.1976 21.4306 16.9527 21.6608 16.6345 21.9518C16.3115 22.2471 15.9021 22.615 15.4922 22.979C15.0824 23.343 14.6715 23.7038 14.3457 23.985C14.183 24.1255 14.0409 24.2465 13.9307 24.3383C13.8562 24.4004 13.7923 24.4522 13.746 24.4875C13.7949 24.5412 13.8844 24.6091 13.9957 24.68C14.1089 24.752 14.2315 24.8195 14.3267 24.8693C14.3742 24.894 14.4145 24.9141 14.4427 24.928C14.4568 24.9349 14.4678 24.9404 14.4752 24.944C14.4778 24.9452 14.4801 24.9462 14.4817 24.947C14.4825 24.9473 14.4833 24.9477 14.4842 24.948C14.4889 24.9498 14.496 24.9525 14.5052 24.956C14.5241 24.9631 14.5521 24.9734 14.5877 24.9858C14.6592 25.0105 14.7613 25.0436 14.8827 25.0768C15.1275 25.1435 15.4435 25.208 15.744 25.208C16.2476 25.208 16.7499 25.1413 17.128 25.0738C17.3166 25.0401 17.4734 25.0064 17.5827 24.9813C17.6373 24.9687 17.6801 24.9583 17.709 24.951C17.7234 24.9474 17.7345 24.9444 17.7417 24.9425C17.7453 24.9416 17.748 24.941 17.7497 24.9405C17.7505 24.9403 17.7515 24.94 17.7515 24.94L17.7545 24.939C17.7565 24.9384 17.7597 24.9376 17.7637 24.9365C17.772 24.9342 17.7844 24.9308 17.8002 24.9263C17.8321 24.9172 17.8786 24.904 17.9365 24.8868C18.0526 24.8522 18.2148 24.8021 18.399 24.7403C18.7694 24.6158 19.2212 24.4459 19.5662 24.2603C20.5012 23.7573 21.3367 22.9619 22.0945 22.234C22.4705 21.8728 22.8293 21.5269 23.1662 21.25C23.5013 20.9747 23.8295 20.7549 24.1477 20.6593C24.7326 20.4834 25.2843 20.3785 25.6892 20.3175C25.8918 20.287 26.0582 20.2675 26.1742 20.2555C26.2323 20.2495 26.2778 20.2454 26.309 20.2428C26.3245 20.2415 26.3365 20.2406 26.3447 20.24C26.3489 20.2397 26.3521 20.2394 26.3542 20.2393C26.3553 20.2392 26.3562 20.239 26.3567 20.239H26.3577L26.6675 20.2185L25.3975 22.1338L25.393 22.1398L25.3925 22.1408C25.3921 22.1413 25.3915 22.1421 25.3907 22.143C25.3892 22.1451 25.3869 22.1483 25.384 22.1523C25.378 22.1603 25.3691 22.1721 25.3577 22.1873C25.335 22.2177 25.3019 22.2619 25.2605 22.3165C25.1775 22.4259 25.0607 22.5782 24.9252 22.749C24.6553 23.0895 24.3074 23.5093 24.005 23.8135C23.2694 24.5535 22.8029 24.9374 21.9177 25.4918C20.9119 26.1217 20.2877 26.4517 19.1285 26.7528C18.6181 26.8853 17.9539 26.9551 17.424 26.992C17.1577 27.0106 16.9225 27.0209 16.754 27.0268C16.6698 27.0296 16.6022 27.0315 16.5555 27.0325C16.5321 27.033 16.5139 27.0333 16.5015 27.0335C16.4954 27.0336 16.4907 27.0337 16.4875 27.0338H16.4762C16.4753 27.0337 16.4738 27.0335 16.472 27.0335C16.4684 27.0334 16.463 27.0334 16.456 27.0333C16.4419 27.0329 16.421 27.0325 16.3942 27.0318C16.3407 27.0303 16.2628 27.028 16.166 27.0245C15.9724 27.0174 15.702 27.0053 15.3952 26.9858C14.7837 26.9468 14.0195 26.8773 13.4282 26.7545C12.378 26.5363 11.7605 26.3934 10.7827 25.9138C9.89873 25.4801 9.44289 25.1359 8.6925 24.5138C7.98546 23.9275 7.59193 23.5652 7.0215 22.8335C6.68804 22.4057 6.3449 21.8091 6.0875 21.3253C5.95822 21.0822 5.8495 20.8653 5.773 20.7093C5.7348 20.6313 5.70444 20.5685 5.68375 20.525C5.67343 20.5033 5.6654 20.4863 5.66 20.4748C5.65733 20.4691 5.65515 20.4645 5.65375 20.4615C5.65312 20.4602 5.6526 20.459 5.65225 20.4583L5.65175 20.4573L5.64675 20.4463L5.6435 20.4348L5.4845 19.8825L5.41325 19.636L7.51 20.0873C7.51962 20.0785 7.53037 20.0686 7.54225 20.0578C7.60166 20.0037 7.68897 19.9244 7.8 19.8235C8.0221 19.6217 8.33958 19.3331 8.7215 18.9868C9.48543 18.2941 10.5071 17.3697 11.5372 16.4428C12.5672 15.5159 13.6062 14.5861 14.405 13.883C14.8043 13.5316 15.1444 13.236 15.3935 13.0258C15.5178 12.9208 15.6206 12.8361 15.6972 12.776C15.7354 12.7461 15.7686 12.7212 15.7955 12.7025C15.8088 12.6932 15.8221 12.6842 15.8347 12.6768C15.8444 12.6711 15.8647 12.6594 15.8887 12.6525C16.0273 12.6126 16.1173 12.5927 16.2135 12.5975ZM15.9855 4.096C20.9248 4.096 25.0887 7.39195 26.368 11.8895C25.8832 11.9909 24.9984 12.1107 23.9077 11.9628C23.3596 11.8623 22.7914 11.7361 22.2942 11.5803C21.7823 11.4198 21.2342 11.288 20.7247 11.183C19.0545 10.228 17.2941 9.57025 15.8545 9.57025C14.2658 9.57026 12.0963 10.3476 10.1582 11.449C10.0711 11.4742 9.98452 11.5002 9.899 11.527C9.40289 11.6825 8.8359 11.8084 8.28875 11.9088C8.28783 11.9089 8.28691 11.9091 8.286 11.9093C7.02882 12.0799 6.0451 11.8951 5.632 11.7923C6.94335 7.34463 11.082 4.09605 15.9855 4.096Z" fill="#C2D7FF"/>
</svg>
