<svg width="17" height="16" viewBox="0 0 17 16" fill="none" xmlns="http://www.w3.org/2000/svg">
<path d="M7.82344 1.34521C7.97328 0.884986 8.62477 0.884992 8.77461 1.34521L9.70528 4.21045C10.04 5.24046 11.0002 5.93799 12.0832 5.93799H15.0949C15.5793 5.93799 15.7807 6.55759 15.3889 6.84229L12.9523 8.61279C12.0762 9.24938 11.7095 10.3777 12.0441 11.4077L12.9748 14.2729C13.1242 14.7335 12.5971 15.1162 12.2053 14.8315L9.76875 13.061C8.89254 12.4244 7.70552 12.4244 6.8293 13.061L4.39278 14.8315C4.001 15.1162 3.47387 14.7335 3.62325 14.2729L4.55391 11.4077C4.88853 10.3777 4.52189 9.24938 3.64571 8.61279L1.20918 6.84229C0.817325 6.55758 1.01877 5.93799 1.50313 5.93799H4.51485C5.59788 5.93799 6.55807 5.24046 6.89278 4.21045L7.82344 1.34521Z" stroke="#F8FF71" stroke-width="2"/>
</svg>
