<svg width="16" height="16" viewBox="0 0 16 16" fill="none" xmlns="http://www.w3.org/2000/svg">
<path d="M9.39747 1.62415L9.23881 1.41303C8.57406 0.528988 7.19106 0.528988 6.52631 1.41303L6.36764 1.62415C6.01666 2.09091 5.42742 2.34085 4.82733 2.2775L4.11982 2.20283C3.05829 2.09077 2.16134 2.94288 2.27929 3.95132L2.3579 4.62346C2.42458 5.19355 2.16148 5.75332 1.67016 6.08676L1.44793 6.23749C0.517356 6.869 0.517356 8.18285 1.44793 8.81437L1.67016 8.9651C2.16148 9.29855 2.42458 9.85834 2.3579 10.4284L2.27929 11.1005C2.16134 12.109 3.05829 12.9611 4.11982 12.849L4.82733 12.7744C5.42742 12.711 6.01666 12.961 6.36764 13.4277L6.52631 13.6388C7.19106 14.5228 8.57406 14.5228 9.23881 13.6388L9.39747 13.4277C9.74847 12.961 10.3377 12.711 10.9378 12.7744L11.6453 12.849C12.7068 12.9611 13.6038 12.109 13.4858 11.1005L13.4072 10.4284C13.3406 9.85834 13.6036 9.29855 14.095 8.9651L14.3171 8.81437C15.2477 8.18285 15.2477 6.869 14.3171 6.23749L14.095 6.08676C13.6036 5.75332 13.3406 5.19355 13.4072 4.62346L13.4858 3.95132C13.6038 2.94288 12.7068 2.09077 11.6453 2.20283L10.9378 2.2775C10.3377 2.34085 9.74847 2.09091 9.39747 1.62415Z" stroke="#09B7FD" stroke-width="1.5" stroke-linecap="round" stroke-linejoin="round"/>
<path d="M5.38255 7.52596L6.8983 8.96592C6.98164 9.04509 7.1168 9.04509 7.20014 8.96592L10.3826 5.94263" stroke="#09B7FD" stroke-width="1.5" stroke-linecap="round" stroke-linejoin="round"/>
</svg>
